<svg xmlns="http://www.w3.org/2000/svg" xmlns:xlink="http://www.w3.org/1999/xlink" viewBox="0 0 220.34 43.87"><defs><style>.cls-1{isolation:isolate;}.cls-2{fill:#13151b;}.cls-3,.cls-4,.cls-5,.cls-6{mix-blend-mode:multiply;}.cls-3{fill:url(#New_Gradient_Swatch_9);}.cls-4{fill:url(#New_Gradient_Swatch_2);}.cls-5{fill:url(#New_Gradient_Swatch_8);}.cls-6{fill:url(#New_Gradient_Swatch_8-2);}</style><linearGradient id="New_Gradient_Swatch_9" x1="112.4" y1="16.78" x2="131.77" y2="16.78" gradientUnits="userSpaceOnUse"><stop offset="0" stop-color="#1a7efc"/><stop offset="1" stop-color="#0434ba"/></linearGradient><linearGradient id="New_Gradient_Swatch_2" x1="233.78" y1="264.09" x2="269.69" y2="264.09" gradientTransform="translate(382.09 297.21) rotate(180)" gradientUnits="userSpaceOnUse"><stop offset="0" stop-color="#27b373"/><stop offset="1" stop-color="#2d489d"/></linearGradient><linearGradient id="New_Gradient_Swatch_8" x1="233.78" y1="275.28" x2="269.69" y2="275.28" gradientTransform="translate(382.09 297.21) rotate(180)" gradientUnits="userSpaceOnUse"><stop offset="0" stop-color="#29b473"/><stop offset="1" stop-color="#0434ba"/></linearGradient><linearGradient id="New_Gradient_Swatch_8-2" x1="233.78" y1="286.46" x2="269.69" y2="286.46" xlink:href="#New_Gradient_Swatch_8"/></defs><g class="cls-1"><g id="Layer_2" data-name="Layer 2"><g id="Layer_1-2" data-name="Layer 1"><path class="cls-2" d="M25.45,15A1.33,1.33,0,0,0,25,13.93a1.68,1.68,0,0,0-1.11-.38,2.38,2.38,0,0,0-2.33,1.92l-2.08,9.69a1.47,1.47,0,0,1-.56.93,1.55,1.55,0,0,1-1,.39,1.08,1.08,0,0,1-1.07-1.07,2.29,2.29,0,0,1,0-.25l1.4-6.46a6.56,6.56,0,0,0,.1-1.07,4,4,0,0,0-1.16-2.92,4.09,4.09,0,0,0-3-1.16,6.09,6.09,0,0,0-3.95,1.53A6.28,6.28,0,0,0,8,18.7l-1.4,6.46a1.47,1.47,0,0,1-.56.93,1.55,1.55,0,0,1-1,.39A1.08,1.08,0,0,1,3.92,25.4v-.24L6,15.47A2,2,0,0,0,6.06,15a1.29,1.29,0,0,0-.45-1.07,1.64,1.64,0,0,0-1.11-.38A2.3,2.3,0,0,0,3.07,14a2.28,2.28,0,0,0-.89,1.43L.12,25.16a4.75,4.75,0,0,0-.12,1,4,4,0,0,0,1.18,2.93,4,4,0,0,0,3,1.19,6.14,6.14,0,0,0,4-1.51,6.32,6.32,0,0,0,2.28-3.64L11.8,18.7a1.64,1.64,0,0,1,.58-.91,1.56,1.56,0,0,1,1-.4,1.09,1.09,0,0,1,.78.29,1,1,0,0,1,.29.74,1.33,1.33,0,0,1,0,.28L13,25.16a6.19,6.19,0,0,0-.1,1,4,4,0,0,0,1.19,2.94,4,4,0,0,0,3,1.19,6.14,6.14,0,0,0,4-1.51,6.31,6.31,0,0,0,2.28-3.65l2.08-9.69A3.73,3.73,0,0,0,25.45,15Z"/><path class="cls-2" d="M33.5,23H31.21a1.52,1.52,0,0,0-1.19.52,1.65,1.65,0,0,0-.46,1.14c0,.69.36,1,1.09,1h2.29a4.19,4.19,0,0,0,2.75-1.06,4.49,4.49,0,0,0,1.59-2.54,4,4,0,0,0,.08-.75,2.77,2.77,0,0,0-.82-2.05,2.88,2.88,0,0,0-2.11-.81H29.91a4.27,4.27,0,0,0-2.76,1.07,4.47,4.47,0,0,0-1.61,2.54l-1,4.52a3.51,3.51,0,0,0-.07.72,2.8,2.8,0,0,0,2.91,2.88h6.79a1.54,1.54,0,0,0,1.21-.53,1.62,1.62,0,0,0,.44-1.12c0-.69-.36-1-1.09-1H28a.75.75,0,0,1-.74-.75,1,1,0,0,1,0-.17l1-4.52a1.13,1.13,0,0,1,.42-.64,1.08,1.08,0,0,1,.7-.28h4.52a.7.7,0,0,1,.53.2.69.69,0,0,1,.2.52,1.09,1.09,0,0,1-.33.77A1.07,1.07,0,0,1,33.5,23Z"/><path class="cls-2" d="M49.48,23.58a2.73,2.73,0,0,0-.81-2,2.92,2.92,0,0,0-2.12-.79H44.29a1.53,1.53,0,0,0-1.2.52,1.69,1.69,0,0,0-.46,1.14c0,.68.37,1,1.09,1H46q.75,0,.75.69a.91.91,0,0,1,0,.23l-.48,2.26a1.12,1.12,0,0,1-.41.65,1.06,1.06,0,0,1-.7.27H39.67l1.64-7.71a1.87,1.87,0,0,0,0-.32,1,1,0,0,0-.32-.76,1.21,1.21,0,0,0-.79-.26,1.58,1.58,0,0,0-1,.34,1.63,1.63,0,0,0-.64,1L36.7,28.88a1.15,1.15,0,0,0,0,.26,1,1,0,0,0,.31.77,1.06,1.06,0,0,0,.78.31h6.78a4.28,4.28,0,0,0,2.77-1,4.39,4.39,0,0,0,1.6-2.55l.48-2.26A3.59,3.59,0,0,0,49.48,23.58Z"/><path class="cls-2" d="M65.37,15a1.33,1.33,0,0,0-.45-1.08,1.73,1.73,0,0,0-1.12-.38,2.27,2.27,0,0,0-1.42.49,2.4,2.4,0,0,0-.91,1.43l-2.06,9.69a1.59,1.59,0,0,1-.6.91,1.55,1.55,0,0,1-1,.41H51.36a2.19,2.19,0,0,0-1.71.73A2.41,2.41,0,0,0,49,28.84c0,1,.52,1.48,1.56,1.48H57a6.09,6.09,0,0,0,4-1.53,6.35,6.35,0,0,0,2.29-3.63l2.06-9.69A1.88,1.88,0,0,0,65.37,15Z"/><path class="cls-2" d="M81.77,13.55H72.08a6.09,6.09,0,0,0-4,1.53,6.28,6.28,0,0,0-2.29,3.62l-1.38,6.46a6.3,6.3,0,0,0-.1,1,4,4,0,0,0,1.17,2.93,4,4,0,0,0,3,1.19h9.7A2.23,2.23,0,0,0,80,29.55a2.35,2.35,0,0,0,.63-1.6q0-1.47-1.56-1.47H69.33a1,1,0,0,1-.75-.32,1,1,0,0,1-.3-.75,1.94,1.94,0,0,1,0-.24l1.38-6.47a1.55,1.55,0,0,1,.59-.91,1.58,1.58,0,0,1,1-.4H81a2.25,2.25,0,0,0,1.74-.77A2.32,2.32,0,0,0,83.33,15C83.33,14,82.81,13.55,81.77,13.55Z"/><path class="cls-2" d="M80.4,20H73.93a2.17,2.17,0,0,0-1.7.73,2.4,2.4,0,0,0-.66,1.63q0,1.47,1.56,1.47h6.46a2.21,2.21,0,0,0,1.74-.77A2.36,2.36,0,0,0,82,21.49C82,20.51,81.43,20,80.4,20Z"/><path class="cls-2" d="M99.74,13.55H86.82a2.28,2.28,0,0,0-1.66.7,2.22,2.22,0,0,0-.7,1.65A1.53,1.53,0,0,0,84.85,17a1.51,1.51,0,0,0,1.16.42h4.55l-2.35,11a1.88,1.88,0,0,0-.06.46A1.29,1.29,0,0,0,88.64,30a1.62,1.62,0,0,0,1.09.37,2.42,2.42,0,0,0,2.32-1.92l2.35-11h4.54a2.21,2.21,0,0,0,1.73-.77A2.32,2.32,0,0,0,101.3,15C101.3,14,100.78,13.55,99.74,13.55Z"/><polygon class="cls-3" points="112.4 11.19 112.4 33.56 131.77 22.37 131.77 0 112.4 11.19"/><path class="cls-4" d="M134.61,43.11,146.89,36a2.83,2.83,0,0,0,0-4.91l-15.12-8.73L112.4,33.56l16.54,9.55A5.68,5.68,0,0,0,134.61,43.11Z"/><path class="cls-5" d="M134.61,31.92l12.28-7.09a2.83,2.83,0,0,0,0-4.91l-15.12-8.73L112.4,22.37l16.54,9.55A5.68,5.68,0,0,0,134.61,31.92Z"/><path class="cls-6" d="M134.61,20.74l12.28-7.1a2.83,2.83,0,0,0,0-4.91L131.77,0,112.4,11.19l16.54,9.55A5.68,5.68,0,0,0,134.61,20.74Z"/><path class="cls-2" d="M166.29,30.32a5.23,5.23,0,0,1-5.15-5.15V18.7a5.23,5.23,0,0,1,5.15-5.15H176a1.78,1.78,0,0,1,1.43.61,2,2,0,0,1,0,2.62,1.78,1.78,0,0,1-1.43.61h-9.7A1.37,1.37,0,0,0,165,18.7v6.47a1.23,1.23,0,0,0,.4.9,1.27,1.27,0,0,0,.91.41H176a1.81,1.81,0,0,1,1.43.6,2,2,0,0,1,0,2.63,1.81,1.81,0,0,1-1.43.61Z"/><path class="cls-2" d="M198.51,28.4V18.7a1.26,1.26,0,0,0-.4-.91,1.21,1.21,0,0,0-.91-.4,1.29,1.29,0,0,0-.92.38,1.24,1.24,0,0,0-.4.93v6.47a5.14,5.14,0,1,1-10.28,0V18.7a1.26,1.26,0,0,0-.4-.91,1.25,1.25,0,0,0-.91-.4,1.3,1.3,0,0,0-.93.38,1.26,1.26,0,0,0-.38.93v9.7a1.8,1.8,0,0,1-.58,1.41,2,2,0,0,1-2.7,0,1.82,1.82,0,0,1-.56-1.41V18.7a5.11,5.11,0,0,1,8.76-3.62,4.89,4.89,0,0,1,1.54,3.62v6.47a1.31,1.31,0,0,0,1.31,1.31,1.22,1.22,0,0,0,.9-.41,1.25,1.25,0,0,0,.39-.9V18.7a5.16,5.16,0,0,1,10.31,0v9.7a1.79,1.79,0,0,1-.57,1.41,2,2,0,0,1-2.67,0A1.81,1.81,0,0,1,198.51,28.4Z"/><path class="cls-2" d="M215.19,30.32H205.5a1.82,1.82,0,0,1-1.44-.61,2,2,0,0,1,0-2.63,1.81,1.81,0,0,1,1.44-.6h9.69a1.27,1.27,0,0,0,.93-.39,1.22,1.22,0,0,0,.38-.92,1.29,1.29,0,0,0-.36-1,1.26,1.26,0,0,0-.95-.37h-6.46a5.19,5.19,0,0,1-5.15-5.15,5.21,5.21,0,0,1,5.15-5.15h9.69a1.79,1.79,0,0,1,1.44.61,2,2,0,0,1,0,2.62,1.79,1.79,0,0,1-1.44.61h-9.69a1.25,1.25,0,0,0-.91.4,1.26,1.26,0,0,0-.4.91A1.39,1.39,0,0,0,208.73,20h6.46a5.09,5.09,0,0,1,5.15,5.15,5.14,5.14,0,0,1-5.15,5.15Z"/></g></g></g></svg>