<svg fill="none" height="41" viewbox="0 0 200 41" width="200" xmlns="http://www.w3.org/2000/svg"> <g clip-path="url(#clip0_1562:525)"> <path d="M26.8661 3.1608L22.4072 0.338734C22.0048 0.0886933 21.5405 -0.0438232 21.0667 -0.0438232C20.593 -0.0438232 20.1286 0.0886933 19.7262 0.338734L14.0821 3.83807L19.8956 7.42215C20.2654 7.6518 20.5709 7.97165 20.7831 8.35176C20.9954 8.73188 21.1076 9.15983 21.1091 9.5952V26.1607C21.1131 26.5971 21.0033 27.0269 20.7905 27.408C20.5777 27.789 20.2692 28.108 19.8956 28.3336L15.4367 31.1557C15.0343 31.4057 14.57 31.5382 14.0962 31.5382C13.6225 31.5382 13.1581 31.4057 12.7557 31.1557L8.26865 28.3336C7.89877 28.104 7.59335 27.7841 7.38107 27.404C7.1688 27.0239 7.05668 26.5961 7.05519 26.1607V9.65153C7.06183 9.21719 7.17617 8.7913 7.38796 8.41205C7.59976 8.03279 7.90236 7.71214 8.26865 7.47865L14.0821 3.89457L8.43797 0.39523C8.03557 0.14519 7.57132 0.0126732 7.09756 0.0126732C6.6238 0.0126732 6.15946 0.14519 5.75706 0.39523L1.24173 3.1608C0.877455 3.38733 0.57731 3.70342 0.369825 4.07887C0.16234 4.45432 0.0543926 4.87664 0.0564247 5.3056V30.7042C0.0574917 31.1365 0.166463 31.5616 0.373442 31.9411C0.580422 32.3206 0.878897 32.6424 1.24173 32.8773L12.7557 39.9888C13.1581 40.2388 13.6225 40.3713 14.0962 40.3713C14.57 40.3713 15.0343 40.2388 15.4367 39.9888L26.9226 32.8773C27.2924 32.6476 27.5979 32.3276 27.8102 31.9475C28.0224 31.5674 28.1346 31.1396 28.136 30.7042V5.3056C28.1322 4.8679 28.0127 4.43898 27.7897 4.06233C27.5666 3.68569 27.248 3.37467 26.8661 3.1608Z" fill="#0063FB"></path> <path d="M40.7507 31.5508H35.7838C35.6886 31.5473 35.5952 31.5246 35.509 31.4839C35.4228 31.4433 35.3458 31.3857 35.2825 31.3145C35.2192 31.2432 35.171 31.16 35.1407 31.0697C35.1105 30.9794 35.0988 30.8837 35.1065 30.7888V4.60005C35.0984 4.50776 35.11 4.41478 35.1408 4.32738C35.1716 4.23999 35.2207 4.16014 35.2849 4.0933C35.3491 4.02647 35.4267 3.97413 35.5128 3.93983C35.5988 3.90553 35.6913 3.89014 35.7838 3.89453H40.7507C40.8444 3.89054 40.9379 3.90596 41.0253 3.94C41.1127 3.97405 41.1921 4.02594 41.2584 4.09227C41.3248 4.15859 41.3766 4.23791 41.4106 4.32532C41.4447 4.41272 41.4602 4.50633 41.4562 4.60005V30.7888C41.464 30.886 41.4515 30.984 41.4196 31.0762C41.3876 31.1685 41.3369 31.253 41.2706 31.3246C41.2043 31.3962 41.1238 31.4533 41.0344 31.4922C40.9449 31.5311 40.8483 31.5511 40.7507 31.5508Z" fill="#0063FB"></path> <path d="M63.8634 31.5508H60.2229C59.8182 31.5851 59.413 31.492 59.0638 31.2845C58.7147 31.077 58.4391 30.7657 58.2757 30.3938L49.8095 15.719C49.6402 15.4933 49.5838 15.4367 49.4709 15.4367C49.358 15.4367 49.2733 15.4368 49.2733 15.719V30.7888C49.2734 30.9861 49.1971 31.1758 49.0602 31.3179C48.9234 31.46 48.7368 31.5435 48.5396 31.5508H44.1372C43.9401 31.5435 43.7534 31.46 43.6165 31.3179C43.4797 31.1758 43.4033 30.9861 43.4034 30.7888V5.39016C43.4034 5.01593 43.5521 4.65714 43.8167 4.39252C44.0814 4.12789 44.4402 3.97913 44.8145 3.97913H48.5678C49.3015 3.97913 49.6967 4.34609 50.12 5.13627L58.9531 20.4601C59.0942 20.6859 59.1223 20.7705 59.2352 20.7705C59.3481 20.7705 59.4328 20.7705 59.4328 20.4318V4.68464C59.4401 4.49498 59.5206 4.31566 59.6574 4.1841C59.7942 4.05254 59.9767 3.97899 60.1665 3.97913H64.569C64.7588 3.97899 64.9413 4.05254 65.0781 4.1841C65.2149 4.31566 65.2954 4.49498 65.3027 4.68464V30.0833C65.3065 30.2746 65.2719 30.4648 65.2013 30.6427C65.1306 30.8206 65.0252 30.9827 64.8912 31.1193C64.7572 31.256 64.5973 31.3646 64.4208 31.4387C64.2443 31.5128 64.0548 31.5508 63.8634 31.5508Z" fill="#0063FB"></path> <path d="M86.2141 9.14362H80.2596V30.7888C80.2597 30.9861 80.1834 31.1759 80.0465 31.318C79.9097 31.4601 79.723 31.5435 79.5258 31.5508H74.6154C74.4183 31.5435 74.2316 31.4601 74.0947 31.318C73.9579 31.1759 73.8815 30.9861 73.8817 30.7888V9.14362H67.8143C67.7193 9.14742 67.6245 9.13206 67.5356 9.09832C67.4468 9.06457 67.3656 9.01315 67.2971 8.94726C67.2285 8.88136 67.1739 8.80222 67.1367 8.71473C67.0995 8.62723 67.0805 8.53317 67.0806 8.4381V4.60013C67.0805 4.50505 67.0995 4.41099 67.1367 4.3235C67.1739 4.23601 67.2285 4.15687 67.2971 4.09097C67.3656 4.02507 67.4468 3.97366 67.5356 3.93991C67.6245 3.90616 67.7193 3.89081 67.8143 3.89461H86.2706C86.4633 3.89408 86.6491 3.96661 86.7904 4.09752C86.9318 4.22842 87.0183 4.40798 87.0326 4.60013V8.4381C87.0255 8.53826 86.9986 8.63601 86.9536 8.72575C86.9085 8.81549 86.8462 8.89547 86.7701 8.96104C86.6941 9.0266 86.6058 9.07645 86.5104 9.10779C86.415 9.13913 86.3142 9.15131 86.2141 9.14362Z" fill="#0063FB"></path> <path d="M104.275 31.071C101.94 31.4195 99.581 31.5798 97.2202 31.5507C92.5356 31.5507 88.4154 30.3372 88.4154 23.7335V11.6269C88.4154 4.99504 92.5921 3.83796 97.2767 3.83796C99.6192 3.79254 101.961 3.95303 104.275 4.31766C104.783 4.31766 105.009 4.57168 105.009 5.05143V8.4097C105.009 8.6043 104.932 8.7909 104.794 8.9285C104.657 9.0661 104.47 9.14346 104.275 9.14346H96.9099C95.1884 9.14346 94.5675 9.73611 94.5675 11.6269V14.9287H103.993C104.18 14.9287 104.36 15.0031 104.492 15.1354C104.624 15.2677 104.699 15.4471 104.699 15.6342V19.1054C104.699 19.2926 104.624 19.472 104.492 19.6043C104.36 19.7366 104.18 19.811 103.993 19.811H94.5675V23.6772C94.5675 25.568 95.1884 26.1324 96.9099 26.1324H104.275C104.47 26.1324 104.657 26.2096 104.794 26.3472C104.932 26.4848 105.009 26.6715 105.009 26.8661V30.2525C105.009 30.7887 104.783 30.9863 104.275 31.071Z" fill="#0063FB"></path> <path d="M127.614 31.5507H121.97C121.575 31.5507 121.434 31.1556 121.236 30.7887L116.326 21.5042H115.902H113.306V30.817C113.306 31.0142 113.23 31.204 113.093 31.3461C112.956 31.4882 112.769 31.5717 112.572 31.579H107.803C107.704 31.579 107.606 31.5592 107.516 31.5206C107.425 31.4819 107.342 31.4253 107.274 31.3542C107.205 31.283 107.152 31.1988 107.117 31.1065C107.082 31.0142 107.065 30.9157 107.069 30.817V6.18035C107.069 4.91042 107.577 4.59998 108.706 4.40243C111.186 4.08415 113.684 3.92396 116.184 3.92273C122.421 3.92273 127.247 6.01106 127.247 12.3889V12.8686C127.343 14.4375 126.935 15.9959 126.082 17.316C125.229 18.6362 123.976 19.6488 122.506 20.2059L128.15 30.5911C128.185 30.7205 128.185 30.8569 128.15 30.9863C128.235 31.3814 128.009 31.5507 127.614 31.5507ZM120.982 12.5018C120.982 10.2441 119.261 9.22823 116.184 9.22823H113.362V16.2834H115.959C119.825 16.2834 121.039 15.2673 121.039 12.7839L120.982 12.5018Z" fill="#0063FB"></path> <path d="M159.278 4.459L155.835 28.7287C155.844 29.1549 155.757 29.5778 155.58 29.9654C155.402 30.3531 155.14 30.6955 154.811 30.9671C154.482 31.2386 154.097 31.4323 153.682 31.5334C153.268 31.6345 152.837 31.6404 152.42 31.5508H150.303C149.519 31.6353 148.732 31.4207 148.098 30.9498C147.465 30.479 147.033 29.7864 146.889 29.0109L144.067 17.9484C144.067 17.638 143.897 17.638 143.728 17.638C143.559 17.638 143.502 17.638 143.418 17.9484L140.595 29.0109C140.445 29.7834 140.011 30.472 139.38 30.9417C138.748 31.4115 137.964 31.6286 137.181 31.5508H135.064C133.089 31.5508 131.96 30.8735 131.65 28.7287L128.207 4.459C128.207 4.09213 128.517 3.97913 128.799 3.97913H133.879C134.161 3.97913 134.415 4.28955 134.472 4.68464L136.56 24.4391C136.56 24.7778 136.56 24.919 136.786 24.919C137.012 24.919 136.983 24.7778 137.04 24.4391L139.721 14.2515C139.811 13.7231 140.095 13.2476 140.518 12.9185C140.941 12.5894 141.472 12.4307 142.006 12.4736H145.675C146.214 12.4233 146.752 12.5786 147.181 12.9083C147.61 13.2381 147.899 13.7179 147.989 14.2515L150.642 24.4391C150.642 24.7778 150.811 24.919 150.896 24.919C150.981 24.919 151.093 24.7778 151.122 24.4391L153.238 4.68464C153.238 4.28955 153.549 3.97913 153.831 3.97913H158.882C159.165 3.97913 159.475 3.97925 159.475 4.459H159.278Z" fill="#0063FB"></path> <path d="M180.387 31.5508H175.25C175.067 31.536 174.894 31.4618 174.756 31.3396C174.619 31.2174 174.525 31.0539 174.489 30.8735L173.19 24.8342H165.655L164.329 30.8735C164.299 31.0516 164.21 31.2145 164.078 31.337C163.945 31.4595 163.775 31.5347 163.595 31.5508H158.431C158.35 31.5591 158.268 31.5497 158.191 31.5232C158.114 31.4968 158.043 31.4538 157.984 31.3975C157.925 31.3412 157.879 31.2729 157.849 31.197C157.819 31.1211 157.806 31.0395 157.81 30.9581C157.81 30.9581 157.81 30.9582 157.81 30.7607L163.454 7.98658C163.95 6.78101 164.793 5.74991 165.875 5.0243C166.958 4.2987 168.232 3.91125 169.536 3.91125C170.839 3.91125 172.113 4.2987 173.196 5.0243C174.279 5.74991 175.122 6.78101 175.617 7.98658L181.092 30.7607C181.092 30.7607 181.092 30.9016 181.092 30.9581C181.1 31.048 181.085 31.1385 181.051 31.2218C181.016 31.3051 180.962 31.3789 180.893 31.4369C180.824 31.495 180.742 31.5356 180.654 31.5554C180.566 31.5752 180.474 31.5737 180.387 31.5508ZM169.917 9.67975C169.917 9.31288 169.747 9.11531 169.437 9.11531C169.127 9.11531 168.985 9.31288 168.929 9.67975L166.671 19.8111H172.146L169.917 9.67975Z" fill="#0063FB"></path> <path d="M199.943 4.71288L194.299 17.5815C194.106 18.1913 193.791 18.7558 193.374 19.2407C192.957 19.7257 192.446 20.1212 191.872 20.4036V30.7324C191.873 30.9297 191.796 31.1193 191.659 31.2614C191.522 31.4035 191.336 31.487 191.139 31.4943H186.257C186.059 31.487 185.873 31.4035 185.736 31.2614C185.599 31.1193 185.523 30.9297 185.523 30.7324V20.4036C184.944 20.1229 184.429 19.7283 184.007 19.2433C183.585 18.7584 183.266 18.1931 183.068 17.5815L177.423 4.71288C177.397 4.63022 177.397 4.54166 177.423 4.45899C177.423 4.37988 177.439 4.30148 177.471 4.22905C177.503 4.15661 177.55 4.09176 177.608 4.03854C177.667 3.98532 177.736 3.94501 177.811 3.92021C177.886 3.89541 177.966 3.88663 178.044 3.89455H183.378C183.557 3.90769 183.728 3.97763 183.865 4.09435C184.002 4.21107 184.098 4.36843 184.14 4.54357L188.147 15.0135C188.345 15.4933 188.458 15.578 188.712 15.578C188.966 15.578 189.079 15.5779 189.276 15.0135L193.283 4.54357C193.323 4.37267 193.416 4.21838 193.547 4.1021C193.678 3.98582 193.843 3.91334 194.017 3.89455H199.379C199.456 3.89072 199.532 3.90252 199.604 3.92917C199.676 3.95581 199.741 3.99677 199.797 4.04957C199.852 4.10236 199.896 4.1659 199.926 4.23628C199.956 4.30667 199.972 4.38244 199.972 4.45899C199.976 4.54463 199.967 4.63031 199.943 4.71288Z" fill="#0063FB"></path> </g> <defs> <clippath id="clip0_1562:525"> <rect fill="white" height="40.2145" width="200"></rect> </clippath> </defs> </svg>